<svg xmlns="http://www.w3.org/2000/svg" xmlns:xlink="http://www.w3.org/1999/xlink" viewBox="0 0 200 200" enable-background="new 0 0 200 200"><symbol id="0" viewBox="-100 -100 200 200"><path fill="#4f7c94" d="m100 0c0-55.23-44.771-100-100-100-55.23 0-100 44.771-100 100s44.771 100 100 100c55.23 0 100-44.771 100-100"/><path class="inside" fill="#fff" d="m.625-100c11.941.033 23.688 2.383 23.688 3.666 0 3.275.131 13.285.131 26.544 0 9.251-3.159 15.282-6.731 18.357 22.1 2.458 45.3 10.85 45.3 48.957 0 10.838-3.845 19.68-10.195 26.622 1.018 2.507 4.434 12.588-.992 26.25 0 0-8.33 2.673-27.26-10.173-7.916 2.207-16.404 3.31-24.835 3.35-8.427-.04-16.915-1.129-24.823-3.336-18.961 12.839-27.28 10.175-27.28 10.175-5.402-13.653-1.986-23.746-.981-26.27-6.339-6.942-10.208-15.784-10.208-26.622 0-38.01 23.16-46.523 45.19-49.03-2.837-2.47-5.403-6.854-6.3-13.248-5.641-2.543-20.02-6.926-28.867 8.234 0 0-5.244 9.529-15.201 10.22 0 0-9.693.115-.686-6.04 0 0 6.49-3.045 11.01-14.506 0 0 5.832-17.698 33.414-11.704.051-8.283.138-15.386.138-17.747 0-1.342 12.861-3.741 25.486-3.707"/></symbol><use xlink:href="#0" width="200" height="200" x="-100" y="-100" transform="matrix(1 0 0-1 100 100)"/></svg>
