<svg xmlns="http://www.w3.org/2000/svg" xmlns:xlink="http://www.w3.org/1999/xlink" viewBox="0 0 200 200" enable-background="new 0 0 200 200"><symbol id="0" viewBox="-99.971 -99.991 199.942 199.982"><path class="inside" fill="#4f7c94" d="m99.93 0c0-55.23-44.75-99.99-99.95-99.99-55.2 0-99.95 44.767-99.95 99.99s44.748 99.99 99.95 99.99c55.2 0 99.99-44.796 99.99-99.99h-.043"/><path class="inside" fill="#fff" d="m-37.742 62.49c-7.786 0-12.886-5.248-12.886-12.09 0-6.679 4.932-12.09 12.563-12.09 8.113 0 12.999 5.4 12.999 12.09-.111 6.831-4.885 12.09-12.676 12.09"/><polygon fill="#fff" points="-25.818,-48.996 -25.818,28.798 -50.016,28.798 -50.016,-48.996 		"/><path class="inside" fill="#fff" d="m-11.343 3.946v-52.989h24.18v44.873c0 2.2.199 4.399.8 6 1.753 4.499 5.699 9.1 12.399 9.07 8.744 0 12.248-6.844 12.248-16.87v-43.12h24.17v45.982c0 22.91-11.926 33.574-27.829 33.574-13.04 0-20.835-7.474-24.02-12.574h-.477l-1.123 10.872h-20.996c.323-7 .645-15.11.645-24.819"/></symbol><use xlink:href="#0" width="199.94" height="199.98" x="-99.97" y="-99.99" transform="matrix(.9998 0 0-.9998 99.91 100)"/></svg>
