<svg xmlns="http://www.w3.org/2000/svg" xmlns:xlink="http://www.w3.org/1999/xlink" viewBox="0 0 200 200" enable-background="new 0 0 200 200"><symbol id="0" viewBox="-101 -100.016 202 200.031"><path fill="#4f7c94" d="m100.02 0c0-55.24-44.779-100.02-100.02-100.02-55.24 0-100.02 44.778-100.02 100.02s44.779 100.02 100.02 100.02c55.24 0 100.02-44.78 100.02-100.02"/><path fill="#fff" d="m-51.757-27.18c0-1.267.234-2.919.703-4.961.471-2.042.962-3.647 1.479-4.82.986-2.347 3.846-4.834 8.586-7.46 4.408-2.393 8.772-3.59 13.09-3.59 1.269 0 2.5.082 3.696.246 1.196.164 2.544.457 4.047.881 1.502.421 2.614.762 3.341 1.02.727.259 2.031.738 3.908 1.443 1.876.703 3.02 1.127 3.446 1.267 4.599 1.643 8.703 3.59 12.314 5.842 6.01 3.707 12.211 8.762 18.615 15.16s11.46 12.607 15.168 18.614c2.253 3.612 4.197 7.719 5.841 12.314.139.422.563 1.573 1.267 3.449.704 1.876 1.187 3.177 1.442 3.904.258.729.6 1.841 1.021 3.344.422 1.501.717 2.85.879 4.046.164 1.196.247 2.428.247 3.694 0 4.314-1.196 8.681-3.59 13.09-2.627 4.74-5.112 7.602-7.461 8.587-1.172.517-2.777 1.01-4.819 1.479-2.041.468-3.694.704-4.961.704-.658 0-1.147-.072-1.479-.212-.844-.282-2.086-2.063-3.729-5.347-.518-.894-1.221-2.16-2.109-3.804-.892-1.641-1.713-3.131-2.466-4.467-.749-1.338-1.478-2.594-2.18-3.766-.142-.188-.552-.773-1.233-1.761-.679-.984-1.185-1.817-1.511-2.498-.33-.68-.494-1.35-.494-2.01 0-.938.67-2.11 2-3.518 1.34-1.408 2.795-2.699 4.364-3.871 1.571-1.174 3.02-2.417 4.362-3.73 1.338-1.313 2.01-2.393 2.01-3.235 0-.422-.116-.951-.352-1.584s-.434-1.114-.599-1.443c-.163-.327-.493-.892-.985-1.688-.49-.8-.762-1.244-.81-1.338-3.563-6.425-7.645-11.939-12.244-16.537-4.598-4.598-10.11-8.68-16.537-12.244-.094-.049-.541-.317-1.338-.81-.797-.494-1.361-.821-1.688-.985-.329-.164-.81-.363-1.444-.599-.632-.235-1.16-.354-1.582-.354-.845 0-1.924.67-3.238 2.01-1.313 1.337-2.558 2.792-3.73 4.362-1.172 1.571-2.461 3.03-3.87 4.363-1.406 1.337-2.579 2.01-3.519 2.01-.655 0-1.324-.164-2-.492-.682-.328-1.514-.832-2.5-1.514-.984-.681-1.57-1.091-1.758-1.231-1.173-.702-2.43-1.432-3.767-2.182-1.337-.752-2.827-1.571-4.466-2.465-1.645-.891-2.911-1.593-3.803-2.108-3.283-1.644-5.066-2.888-5.348-3.73-.141-.326-.211-.819-.211-1.476"/></symbol><use xlink:href="#0" width="202" height="200.03" x="-101" y="-100.02" transform="matrix(1 0 0-1 100 100)"/></svg>
