<svg xmlns="http://www.w3.org/2000/svg" xmlns:xlink="http://www.w3.org/1999/xlink" viewBox="0 0 200 200" enable-background="new 0 0 200 200"><symbol id="0" viewBox="-99.958 -100 199.917 200"><path fill="#4f7c94" d="m99.96 0c0-55.23-44.754-100-99.96-100-55.21 0-99.96 44.771-99.96 100s44.752 100 99.96 100c55.2 0 99.96-44.771 99.96-100"/><path fill="#fff" d="m-64.62 43.592c3.816-5.709 8.645-10.719 14.209-14.736-.06-1.217-.084-2.443-.084-3.678 0-37.628 28.637-81.01 81.01-81.01 16.08 0 31.04 4.713 43.642 12.795-2.23-.264-4.492-.397-6.787-.397-13.342 0-25.623 4.549-35.36 12.184 12.46.233 22.975 8.462 26.596 19.772-1.736-.338-3.523-.516-5.353-.516-2.601 0-5.116.346-7.505.999 13.02 2.616 22.833 14.12 22.833 27.917 0 .119 0 .242-.004.355-3.842-2.136-8.229-3.413-12.896-3.558 7.641 5.107 12.668 13.822 12.668 23.699 0 5.222-1.406 10.11-3.859 14.314-14.04-17.222-35.02-28.559-58.68-29.746.482 2.08.736 4.253.736 6.487 0 15.722-12.748 28.47-28.469 28.47-8.19 0-15.589-3.456-20.784-8.986-6.48 1.27-12.579 3.641-18.08 6.902 2.13-6.648 6.645-12.224 12.522-15.746-5.759.687-11.253 2.22-16.355 4.479l.005.002"/></symbol><use xlink:href="#0" width="199.92" height="200" x="-99.96" y="-100" transform="matrix(1 0 0-1 100 100.48)"/></svg>
